<?xml version="1.0" standalone="no"?>
<!DOCTYPE svg PUBLIC "-//W3C//DTD SVG 20010904//EN"
 "http://www.w3.org/TR/2001/REC-SVG-20010904/DTD/svg10.dtd">
<svg version="1.0" xmlns="http://www.w3.org/2000/svg"
 width="475.000000pt" height="475.000000pt" viewBox="0 0 475.000000 475.000000"
 preserveAspectRatio="xMidYMid meet">

<g transform="translate(0.000000,475.000000) scale(0.100000,-0.100000)"
fill="#000000" stroke="none">
<path d="M2230 4744 c-155 -14 -259 -28 -360 -51 -711 -157 -1310 -628 -1626
-1278 -84 -174 -122 -278 -170 -463 -50 -195 -67 -343 -67 -577 0 -386 68
-690 233 -1033 231 -479 616 -865 1095 -1098 237 -115 472 -187 718 -221 164
-22 480 -22 644 0 246 34 481 106 718 221 479 233 864 619 1095 1098 165 343
233 647 233 1033 0 386 -68 690 -233 1033 -231 479 -616 865 -1095 1098 -326
158 -619 229 -983 238 -86 2 -177 2 -202 0z m1320 -1449 l0 -585 145 0 145 0
-2 -882 -3 -883 -1460 0 -1460 0 -3 1468 -2 1467 1320 0 1320 0 0 -585z"/>
<path d="M1500 2995 l0 -285 725 0 725 0 0 285 0 285 -725 0 -725 0 0 -285z"/>
<path d="M1507 2113 c-4 -3 -7 -134 -7 -290 l0 -283 875 0 875 0 -2 288 -3
287 -866 3 c-476 1 -869 -1 -872 -5z"/>
</g>
</svg>
